<?xml version="1.0" standalone="no"?>
<!DOCTYPE svg PUBLIC "-//W3C//DTD SVG 20010904//EN"
 "http://www.w3.org/TR/2001/REC-SVG-20010904/DTD/svg10.dtd">
<svg version="1.0" xmlns="http://www.w3.org/2000/svg"
 width="241.000000pt" height="190.000000pt" viewBox="0 0 241.000000 190.000000"
 preserveAspectRatio="xMidYMid meet">

<g transform="translate(0.000000,190.000000) scale(0.100000,-0.100000)"
fill="#000000" stroke="none">
<path d="M470 1586 c8 -7 74 -57 145 -112 72 -54 133 -103 137 -109 4 -5 8
-26 8 -46 0 -20 3 -51 6 -68 l7 -31 82 0 83 0 6 33 c3 17 20 61 36 96 17 35
29 65 27 67 -11 12 -248 107 -318 128 -76 23 -210 56 -227 56 -3 0 0 -6 8 -14z"/>
<path d="M1026 1592 c5 -5 73 -57 150 -116 140 -105 141 -107 148 -153 3 -25
6 -59 6 -74 l0 -29 85 0 84 0 12 43 c6 23 22 64 35 90 13 27 24 52 24 56 0 23
-275 128 -435 167 -110 26 -124 28 -109 16z"/>
<path d="M1093 1255 c-49 -21 -75 -69 -70 -128 5 -57 34 -92 88 -108 78 -24
149 26 157 111 5 58 -11 90 -61 120 -37 23 -70 25 -114 5z m115 -61 c49 -56
11 -138 -65 -138 -26 0 -42 7 -59 28 -34 38 -31 80 6 118 26 25 36 29 63 24
18 -3 42 -17 55 -32z"/>
<path d="M1106 1189 c-17 -14 -26 -30 -26 -50 0 -65 80 -93 119 -43 27 35 26
59 -4 89 -30 30 -54 31 -89 4z"/>
<path d="M781 1028 c-6 -35 -26 -94 -45 -133 -19 -38 -32 -73 -28 -76 4 -4 52
-24 107 -44 134 -50 283 -82 413 -90 l107 -7 -130 87 c-71 47 -153 109 -182
137 -45 44 -54 60 -68 119 l-17 69 -73 0 -73 0 -11 -62z"/>
<path d="M1350 1062 c0 -43 -28 -131 -60 -188 l-29 -52 50 -21 c81 -35 223
-79 306 -95 104 -19 281 -32 268 -18 -5 5 -62 43 -125 84 -63 41 -138 95 -166
121 -44 40 -53 55 -73 121 l-22 76 -74 0 -75 0 0 -28z"/>
<path d="M710 365 c0 -138 1 -145 20 -145 18 0 20 7 20 60 0 65 1 66 49 49 30
-11 31 -12 31 -75 0 -62 1 -64 25 -64 l25 0 0 145 0 145 -25 0 c-24 0 -25 -3
-25 -60 0 -33 -2 -60 -5 -60 -3 0 -21 7 -40 14 -34 15 -35 16 -35 75 0 54 -2
61 -20 61 -19 0 -20 -7 -20 -145z"/>
<path d="M1760 426 c0 -47 -4 -87 -8 -90 -5 -3 -22 28 -39 67 -26 60 -35 73
-57 75 l-26 3 0 -145 c0 -139 1 -146 20 -146 18 0 20 7 20 85 0 47 3 85 8 85
4 0 21 -32 39 -70 27 -60 35 -70 57 -70 l26 0 0 145 c0 138 -1 145 -20 145
-18 0 -20 -7 -20 -84z"/>
<path d="M920 471 c0 -6 11 -40 25 -77 18 -47 25 -86 25 -135 0 -62 2 -69 20
-69 18 0 20 7 20 54 0 35 11 85 30 139 17 47 30 88 30 92 0 3 -10 5 -22 3 -16
-2 -25 -13 -33 -41 -14 -49 -27 -49 -41 0 -8 27 -17 39 -32 41 -12 2 -22 -1
-22 -7z"/>
<path d="M1470 335 l0 -145 60 0 c53 0 60 2 60 20 0 17 -7 20 -40 20 l-40 0 0
40 c0 38 2 40 30 40 25 0 30 4 30 25 0 21 -5 25 -30 25 -28 0 -30 2 -30 40 l0
40 40 0 c33 0 40 3 40 20 0 18 -7 20 -60 20 l-60 0 0 -145z"/>
<path d="M1110 325 c0 -127 1 -135 19 -135 17 0 20 8 23 53 3 47 5 52 28 55
40 6 70 40 70 82 0 52 -32 80 -93 80 l-47 0 0 -135z m84 82 c27 -20 18 -62
-14 -62 -19 0 -26 6 -28 23 -4 27 4 52 16 52 4 0 16 -6 26 -13z"/>
<path d="M1290 325 c0 -128 1 -135 20 -135 18 0 20 7 20 65 l0 65 30 0 30 0 0
-65 c0 -58 2 -65 20 -65 19 0 20 7 20 135 0 127 -1 135 -19 135 -17 0 -20 -8
-23 -47 -3 -44 -5 -48 -30 -51 -27 -3 -28 -2 -28 47 0 44 -3 51 -20 51 -19 0
-20 -7 -20 -135z"/>
<path d="M340 350 c0 -6 53 -10 140 -10 87 0 140 4 140 10 0 6 -53 10 -140 10
-87 0 -140 -4 -140 -10z"/>
<path d="M1890 350 c0 -6 53 -10 140 -10 87 0 140 4 140 10 0 6 -53 10 -140
10 -87 0 -140 -4 -140 -10z"/>
</g>
</svg>
